<svg width="112" height="109" viewBox="0 0 112 109" fill="none" xmlns="http://www.w3.org/2000/svg">
<path d="M20.3636 54.5C20.3636 35.6727 36.6546 19.8182 56 19.8182C63.1273 19.8182 70.2546 22.2954 75.8546 26.2591" stroke="#3B82F6" stroke-width="10" stroke-linecap="round"/>
<path d="M91.6364 54.5C91.6364 73.3273 75.3454 89.1818 56 89.1818C48.8727 89.1818 41.7454 86.7045 36.1454 82.7409" stroke="#10B981" stroke-width="10" stroke-linecap="round"/>
<path d="M33.0909 76.7955L78.9091 32.2045" stroke="#F59E0B" stroke-width="10" stroke-linecap="round"/>
<path d="M56 57.4727C57.687 57.4727 59.0546 56.1418 59.0546 54.5C59.0546 52.8582 57.687 51.5273 56 51.5273C54.313 51.5273 52.9455 52.8582 52.9455 54.5C52.9455 56.1418 54.313 57.4727 56 57.4727Z" fill="#1F2937"/>
</svg>
